<svg xmlns="http://www.w3.org/2000/svg" width="256" height="256" viewBox="0 0 256 256" role="img" aria-label="Cubist Munchlax mark">
  <g stroke="#3f6070" stroke-width="2.4" stroke-linejoin="round">
    <polygon points="84,66 104,16 122,86 90,86" fill="#58879D" />
    <polygon points="172,66 152,16 136,86 166,86" fill="#4D7488" />

    <polygon points="128,78 72,104 56,158 88,206 164,206 198,158 182,104" fill="#58879D" />
    <polygon points="88,206 56,158 72,104 118,120 124,194" fill="#4D7488" />
    <polygon points="164,206 124,194 118,120 170,108 198,158" fill="#6E9AB1" />

    <polygon points="70,140 102,124 124,144 102,172 74,166" fill="#F8E0C0" />
    <polygon points="124,144 170,108 188,134 174,172 136,182 102,172" fill="#EED4B4" />

    <polygon points="106,156 138,152 154,168 144,188 114,192 98,176" fill="#785A62" />
    <polygon points="116,172 132,170 124,180" fill="#E2B7C5" />

    <polygon points="42,148 64,134 82,154 66,178 44,172" fill="#4D7488" />
    <polygon points="188,150 208,136 222,156 210,176 190,172" fill="#4D7488" />

    <path d="M126 86L128 116" stroke="#2f4956" stroke-width="3" stroke-linecap="round" fill="none" />
  </g>
</svg>
